<svg width="32" height="32" viewBox="0 0 32 32" fill="none" xmlns="http://www.w3.org/2000/svg">
  <style>
    /* Mặc định cho Light Mode */
    .icon-node { fill: #0066FF; }
    .icon-link { stroke: #0066FF; }
    
    /* Tự động đổi màu cho Dark Mode */
    @media (prefers-color-scheme: dark) {
      .icon-node { fill: #00F3FF; }
      .icon-link { stroke: #00F3FF; }
    }
  </style>
  
  <!-- Hình ảnh cách điệu 2 nút kết nối (Smart Collab) -->
  <path d="M12 16C12 18.2091 10.2091 20 8 20C5.79086 20 4 18.2091 4 16C4 13.7909 5.79086 12 8 12C10.2091 12 12 13.7909 12 16Z" class="icon-node" fill-opacity="0.9"/>
  <path d="M28 16C28 18.2091 26.2091 20 24 20C21.7909 20 20 18.2091 20 16C20 13.7909 21.7909 12 24 12C26.2091 12 28 13.7909 28 16Z" class="icon-node" fill-opacity="0.9"/>
  <path d="M12 16H20" class="icon-link" stroke-width="3" stroke-linecap="round"/>
  
  <!-- Hiệu ứng vòng tròn bao quanh mờ -->
  <circle cx="16" cy="16" r="14" class="icon-link" stroke-opacity="0.2" stroke-width="1"/>
</svg>
